# xmcd
#
# Track frame offsets: 
#        183
#        20150
#        37590
#        56663
#        77368
#        99458
#        113778
#        136498
#        154843
#        170488
#        189640
#
# Disc length: 2788 seconds
#
# Revision: 2
# Processed by: cddbd v1.5.2PL0 Copyright (c) Steve Scherf et al.
# Submitted via: ExactAudioCopy v0.99pb5
#
DISCID=860ae20b
DTITLE=Tipsy Wit - Songs and Dreams
DYEAR=1991
DGENRE=Country
TTITLE0=Listen
TTITLE1=Rock Invasion
TTITLE2=Dancin'
TTITLE3=Gypsy
TTITLE4=What Can I Do?
TTITLE5=Move On
TTITLE6=Hurry Man
TTITLE7=They Need You
TTITLE8=Ice Cream Lickin' Party
TTITLE9=For Your Love
TTITLE10=Kiss Kiss
EXTD=
EXTT0=
EXTT1=
EXTT2=
EXTT3=
EXTT4=
EXTT5=
EXTT6=
EXTT7=
EXTT8=
EXTT9=
EXTT10=
PLAYORDER=
